<svg width="145" height="232" viewBox="0 0 145 232" fill="none" xmlns="http://www.w3.org/2000/svg">
<path d="M72.6893 0H82.4193L86.9982 0.534273L90.1461 1.60282L90.4323 3.47277L89.0014 8.54837L86.4258 16.0282L82.9917 27.2479L84.9949 26.9808L87.8567 25.1108L93.2941 21.3709L97.873 18.1653L99.8762 17.0967L100.735 17.3639V34.4606L101.021 35.5292L107.889 37.3991L117.619 39.8033L119.909 40.6048L119.623 42.2076L117.333 45.4132L114.185 48.886L111.323 52.3588L107.603 56.9001L105.027 59.5714L102.738 63.0442L102.452 63.8456L111.896 64.1128L115.044 64.647L115.902 65.4484L117.333 69.1884L119.05 75.5996L120.767 82.278L121.626 84.9494H133.073L136.221 85.2165L137.652 86.018L141.086 91.3607L144.234 96.7034L144.52 98.8405L142.803 102.848L139.941 107.122L137.079 110.862L134.218 114.334L130.211 118.341L127.349 121.013L125.06 122.883L121.626 126.088L119.05 129.027L116.188 132.233L113.327 136.507L110.751 140.781L108.462 145.589L106.744 150.398L105.314 156.275L103.883 169.899L102.738 172.837L100.735 175.242L98.1591 177.379L94.725 178.981L91.0047 179.783L86.9982 180.05H63.2454L58.0942 179.249L54.3739 177.913L51.2259 175.776L49.5088 173.906L47.7918 170.7L46.9332 166.159L46.0747 157.878L44.93 152.001L42.9267 145.857L39.7788 139.445L37.4893 135.705L33.769 130.63L30.3349 126.89L27.1869 123.684L22.8943 119.944L17.1707 114.602L14.0227 110.862L10.5886 106.053L8.01299 101.779L5.72356 97.2377L3.14796 90.025L1.71707 83.8809L0.572356 77.2025L0 70.2569L0.572356 63.5785L1.71707 56.6329L3.43414 50.2217L6.00974 43.5433L9.73006 36.3306L12.878 31.5221L14.8813 28.8507L18.0292 25.1108L21.7495 21.1038L23.7528 19.2338L26.9008 16.8296L30.3349 14.1582L37.2032 9.88405L42.3544 7.21269L47.7918 4.80846L52.3706 3.20564L59.5251 1.60282L66.6795 0.534273L72.6893 0ZM47.2194 15.7611L42.6406 17.3639L38.0617 19.7681L32.9105 23.2409L29.4764 26.1794L27.1869 28.3165L23.7528 32.8578L21.4634 36.8648L19.4601 41.9404V44.3447L20.6048 45.9475L21.7495 46.7489H24.039L26.0422 45.6803L27.4731 43.8104L29.4764 39.5362L31.1934 36.3306L33.769 32.8578L36.3446 30.1864L39.4926 27.7822L43.7853 25.378L48.0779 23.508L51.5121 21.9052L52.3706 20.8366V18.1653L51.2259 16.2953L50.3674 15.7611H47.2194Z" fill="#E0E0E0"/>
<path d="M50.5428 214.787H96.4168V216.959L95.6025 219.673L93.431 223.473L91.2594 225.373L88.2735 226.731L82.8447 227.816L79.8588 229.717L77.4158 231.074L75.7871 231.345H70.9011L68.4581 230.531L65.4723 228.359L63.0293 227.545L57.6004 226.459L54.8859 224.559L52.7144 222.116L51.3572 219.13L50.5428 216.959V214.787Z" fill="#808080"/>
<path d="M51.0858 206.372H95.874L96.9598 207.458L97.2312 209.358L96.4169 210.715L95.6026 211.53H51.9001L50.8143 210.987L50 209.63L50.2714 207.458L51.0858 206.372Z" fill="#828282"/>
<path d="M51.3572 197.686H95.3311L96.6883 198.501L97.2312 200.672L96.4169 202.029L95.6026 202.844H51.3572L50.2714 201.486L50 199.586L51.0858 197.958L51.3572 197.686Z" fill="#828282"/>
<path d="M61.6721 189H94.5168L96.4169 189.543L97.2312 191.443L96.6883 193.343L95.874 193.615V194.157H51.0858L50.2714 193.072L50 191.714L50.8143 189.543L51.0858 189.271L61.6721 189Z" fill="#818181"/>
<path d="M95.7339 19.3724L96.5482 19.6438V27.7872H96.2768L96.0054 22.3583L94.6481 21.544L93.0195 21.2725L94.3767 20.1867L95.7339 19.3724Z" fill="#FEFEFE"/>
<path d="M111.749 42.4451L113.378 42.7166L114.735 43.2595L114.463 44.8881L113.649 45.7025L112.835 43.5309L111.749 42.4451Z" fill="#FEFEFE"/>
<path d="M138.317 95.1485L140.174 95.4609L141.698 98.4283L141.912 100.564L140.216 104.517L137.448 108.71L134.694 112.371L131.947 115.765L128.122 119.665L125.394 122.261L123.218 124.071L119.945 127.186L117.477 130.055L114.736 133.183L111.969 137.376L109.468 141.575L107.22 146.313L105.504 151.065L104.028 156.888L102.361 170.43L101.224 173.331L99.301 175.681L96.8526 177.751L93.619 179.268L91.4764 179.748L88.8147 179.682L89.38 178.364L91.01 177.073L92.1077 175.769L92.3871 175.243L92.9194 175.256L94.3492 171.297L95.2335 167.856L95.526 166.798L96.4894 160.163L97.0943 157.249L98.005 152.744L98.6033 150.095L99.1356 150.108L99.4611 147.719L100.033 146.135L100.565 146.149L101.157 143.766L103.399 139.294L104.23 137.983L106.166 135.101L108.374 131.96L108.907 131.973L108.92 131.441L109.452 131.454L109.745 130.396L110.842 129.091L111.375 129.105L111.934 128.053L119.298 121.045L119.831 121.058L120.389 120.006L120.922 120.019L120.935 119.487L121.467 119.5L121.48 118.968L122.013 118.981L122.572 117.93L123.104 117.943L123.117 117.41L123.649 117.424L124.208 116.372L125.286 115.866L125.845 114.815L128.865 111.161L129.963 109.856L130.801 108.279L131.905 106.708L133.861 103.028L135.809 99.6141L137.505 95.6611L138.317 95.1485Z" fill="#C7C7C7"/>
</svg>
