<svg width="145" height="229" viewBox="0 0 145 229" fill="none" xmlns="http://www.w3.org/2000/svg">
<path d="M68.8172 0H75.4237L81.4796 0.532699L86.7097 1.33175L93.3161 2.92985L98.8215 4.79429L104.327 7.19144L109.006 9.58858L113.961 12.7848L117.815 15.7146L121.394 18.9108L123.596 20.7753L128 25.3032L131.028 29.0321L133.781 33.0273L136.533 37.8216L139.011 42.8823L141.213 48.742L142.865 54.868L144.241 62.0594L144.516 66.8537V72.9798L143.966 79.6385L142.314 87.3627L140.387 93.755L137.634 100.147L134.606 105.741L131.303 110.535L128.826 113.465L125.798 116.661L123.596 118.792L121.394 120.656L118.916 123.053H118.366V123.586L117.265 124.652H116.714L116.163 125.717L113.411 128.647L109.832 133.441L105.978 139.834L103.776 144.361L102.125 149.422L101.024 153.95L99.9226 161.941L99.6473 166.468L98.8215 170.464L97.4452 173.127L94.4172 176.323L91.3892 178.188L88.086 179.786L87.2602 180.052H56.7054L54.228 178.987L51.2 177.122L48.4473 174.725L46.7957 172.861L45.4194 169.665L44.8688 167.8L44.043 158.212L42.9419 151.819L41.0151 145.427L38.8129 140.366L36.0602 135.572L33.3075 131.577L30.5548 128.114L28.0774 125.451L26.1505 123.32L23.6731 120.923L21.471 119.058L17.8925 115.862L15.9656 113.731L12.9376 110.002L9.90968 105.474L7.43226 101.479L4.67957 95.3531L2.47742 88.6944L0.825806 81.7693L0.275269 78.5731L0 74.5779V64.1902L0.550538 59.396L2.47742 51.1391L5.23011 43.1486L9.08387 35.4245L11.8366 31.1629L14.5892 27.434L17.6172 23.9715L20.6452 20.7753L23.9484 17.5791L26.9763 15.1819L31.1054 12.2521L36.886 8.78954L43.2172 5.59334L47.6215 3.99524L53.1269 2.39715L60.8344 0.799049L64.4129 0.26635L68.8172 0Z" fill="#E0E0E0" fill-opacity="0.5"/>
<path d="M44.5935 15.4483H47.071L48.7226 16.5137L49.5484 17.8454V20.2426L48.4473 21.5743L45.6946 22.9061L43.4925 23.7051L39.3634 25.8359L35.7849 28.2331L32.4817 31.4292L29.1785 35.6908L26.9763 39.9524L24.4989 45.2794L22.8473 46.6112L20.3699 46.3448L18.7183 45.0131L18.1677 43.9477V41.8169L19.5441 37.5553L21.7462 33.2937L24.2237 29.5648H24.7742L25.3247 28.2331H25.8753L26.4258 27.1677L28.9032 24.5042L32.4817 21.5743L35.2344 19.7099L39.6387 17.3127L43.4925 15.7146L44.5935 15.4483Z" fill="white" fill-opacity="0.51"/>
<path d="M135.975 89.6103L137.931 89.9394L139.537 93.0661L139.762 95.3168L137.975 99.482L135.059 103.9L132.157 107.757L129.263 111.333L125.232 115.443L122.358 118.178L120.065 120.086L116.616 123.368L114.016 126.391L111.128 129.687L108.212 134.104L105.577 138.529L103.208 143.522L101.4 148.529L99.8447 154.664L98.088 168.933L96.8897 171.99L94.8639 174.466L92.2842 176.647L88.8769 178.246L86.6193 178.752L83.8147 178.682L84.4104 177.294L86.1279 175.933L87.2845 174.559L87.5789 174.005L88.1398 174.019L89.6463 169.846L90.5781 166.221L90.8863 165.106L91.9014 158.116L92.5388 155.044L93.4983 150.297L94.1288 147.507L94.6897 147.521L95.0327 145.003L95.6353 143.334L96.1963 143.348L96.8197 140.838L99.1816 136.126L100.058 134.744L102.097 131.708L104.424 128.398L104.985 128.412L104.999 127.851L105.56 127.865L105.868 126.75L107.025 125.375L107.586 125.389L108.175 124.281L115.935 116.897L116.496 116.91L117.084 115.802L117.645 115.816L117.659 115.255L118.22 115.269L118.234 114.708L118.795 114.722L119.384 113.614L119.945 113.628L119.959 113.067L120.52 113.081L121.108 111.973L122.244 111.44L122.833 110.332L126.015 106.482L127.172 105.108L128.055 103.446L129.218 101.791L131.279 97.9129L133.332 94.3156L135.119 90.1503L135.975 89.6103Z" fill="#C7C7C7"/>
<path d="M48.5428 211.787H94.4168V213.959L93.6025 216.673L91.431 220.473L89.2594 222.373L86.2735 223.731L80.8447 224.816L77.8588 226.717L75.4158 228.074L73.7871 228.345H68.9011L66.4581 227.531L63.4723 225.359L61.0293 224.545L55.6004 223.459L52.8859 221.559L50.7144 219.116L49.3572 216.13L48.5428 213.959V211.787Z" fill="#808080"/>
<path d="M49.0858 203.372H93.874L94.9598 204.458L95.2312 206.358L94.4169 207.715L93.6026 208.53H49.9001L48.8143 207.987L48 206.63L48.2714 204.458L49.0858 203.372Z" fill="#828282"/>
<path d="M49.3572 194.686H93.3311L94.6883 195.501L95.2312 197.672L94.4169 199.029L93.6026 199.844H49.3572L48.2714 198.486L48 196.586L49.0858 194.958L49.3572 194.686Z" fill="#828282"/>
<path d="M59.6721 186H92.5168L94.4169 186.543L95.2312 188.443L94.6883 190.343L93.874 190.615V191.157H49.0858L48.2714 190.072L48 188.714L48.8143 186.543L49.0858 186.271L59.6721 186Z" fill="#818181"/>
</svg>
