<svg width="64" height="64" viewBox="0 0 64 64" fill="none" xmlns="http://www.w3.org/2000/svg">
<path d="M56 48C55.9975 47.8474 55.9595 47.6974 55.889 47.562C57.9321 43.69 59 39.378 59 35C59 30.622 57.9321 26.31 55.889 22.438C55.9642 22.2945 56.0023 22.1345 55.9999 21.9725C55.9974 21.8105 55.9545 21.6517 55.875 21.5105C55.7955 21.3694 55.6819 21.2504 55.5446 21.1643C55.4073 21.0783 55.2507 21.028 55.089 21.018C53.2095 17.9239 50.7289 15.2379 47.7937 13.1188C44.8585 10.9996 41.5284 9.4903 38 8.68V6C38 5.73478 37.8946 5.48043 37.7071 5.29289C37.5196 5.10536 37.2652 5 37 5H33V2H31V5H27C26.7348 5 26.4804 5.10536 26.2929 5.29289C26.1053 5.48043 26 5.73478 26 6V8.68C22.4714 9.49018 19.1411 10.9994 16.2057 13.1186C13.2704 15.2377 10.7896 17.9238 8.90999 21.018C8.74829 21.028 8.59166 21.0783 8.45437 21.1643C8.31709 21.2504 8.20351 21.3694 8.12399 21.5105C8.04447 21.6517 8.00153 21.8105 7.99908 21.9725C7.99664 22.1345 8.03476 22.2945 8.10999 22.438C6.06687 26.31 4.99902 30.622 4.99902 35C4.99902 39.378 6.06687 43.69 8.10999 47.562C8.03476 47.7055 7.99664 47.8655 7.99908 48.0275C8.00153 48.1895 8.04447 48.3483 8.12399 48.4895C8.20351 48.6306 8.31709 48.7496 8.45437 48.8357C8.59166 48.9217 8.74829 48.972 8.90999 48.982C11.3135 52.9552 14.7015 56.2409 18.7465 58.5215C22.7914 60.8021 27.3564 62.0003 32 62.0003C36.6436 62.0003 41.2086 60.8021 45.2535 58.5215C49.2985 56.2409 52.6865 52.9552 55.09 48.982C55.3369 48.9615 55.5672 48.8494 55.7356 48.6677C55.904 48.4859 55.9983 48.2478 56 48ZM7.02499 36H16.015C16.0808 39.7237 16.6383 43.4223 17.673 47H10.073C8.21651 43.6198 7.17294 39.8536 7.02499 36ZM10.076 23H17.676C16.6413 26.5777 16.0838 30.2763 16.018 34H7.02499C7.17386 30.1461 8.21847 26.3799 10.076 23ZM56.976 34H47.986C47.9201 30.2763 47.3627 26.5777 46.328 23H53.928C55.7841 26.3803 56.8273 30.1465 56.975 34H56.976ZM45.986 34H33V23H44.278C45.3483 26.5712 45.923 30.2724 45.986 34ZM33 21V10.071C37.4 10.629 41.249 14.831 43.593 21H33ZM31 10.071V21H20.407C22.751 14.831 26.6 10.629 31 10.071ZM31 23V34H18.014C18.077 30.2724 18.6517 26.5712 19.722 23H31ZM18.014 36H31V47H19.722C18.6517 43.4288 18.077 39.7276 18.014 36ZM31 49V59.929C26.6 59.371 22.751 55.169 20.407 49H31ZM33 59.929V49H43.593C41.249 55.169 37.4 59.371 33 59.929ZM33 47V36H45.986C45.923 39.7276 45.3483 43.4288 44.278 47H33ZM47.985 36H56.975C56.8261 39.8539 55.7815 43.6201 53.924 47H46.324C47.3597 43.4225 47.9182 39.7238 47.985 36ZM52.7 21H45.676C44.4429 17.2609 42.3176 13.8785 39.484 11.145C44.8727 12.8493 49.5291 16.3215 52.7 21ZM28 7H36V8.3C33.3481 7.90267 30.6519 7.90267 28 8.3V7ZM24.516 11.145C21.6824 13.8785 19.5571 17.2609 18.324 21H11.3C14.4709 16.3215 19.1272 12.8493 24.516 11.145ZM11.3 49H18.326C19.5591 52.7391 21.6844 56.1215 24.518 58.855C19.1285 57.1511 14.4714 53.6789 11.3 49ZM39.486 58.855C42.3189 56.1213 44.4434 52.7389 45.676 49H52.7C49.5291 53.6785 44.8727 57.1507 39.484 58.855H39.486ZM53.648 8.764L53.148 10.309C53.0824 10.51 53.0823 10.7266 53.1475 10.9277C53.2128 11.1289 53.3401 11.3041 53.5112 11.4283C53.6823 11.5525 53.8884 11.6193 54.0998 11.6191C54.3112 11.6188 54.5172 11.5516 54.688 11.427L56 10.472L57.314 11.427C57.4848 11.5516 57.6907 11.6188 57.9022 11.6191C58.1136 11.6193 58.3197 11.5525 58.4908 11.4283C58.6619 11.3041 58.7892 11.1289 58.8545 10.9277C58.9197 10.7266 58.9195 10.51 58.854 10.309L58.354 8.764L59.668 7.809C59.839 7.68476 59.9662 7.50953 60.0314 7.30848C60.0966 7.10742 60.0964 6.89087 60.0309 6.68993C59.9654 6.48898 59.8378 6.31396 59.6666 6.19001C59.4954 6.06606 59.2894 5.99954 59.078 6H57.453L56.953 4.455C56.8872 4.25493 56.76 4.08073 56.5894 3.95723C56.4188 3.83374 56.2136 3.76725 56.003 3.76725C55.7924 3.76725 55.5872 3.83374 55.4166 3.95723C55.246 4.08073 55.1187 4.25493 55.053 4.455L54.547 6H52.922C52.7108 5.99996 52.505 6.06678 52.3341 6.19089C52.1633 6.31501 52.0361 6.49003 51.9708 6.69088C51.9055 6.89173 51.9055 7.10809 51.9707 7.30895C52.036 7.50981 52.1631 7.68486 52.334 7.809L53.648 8.764ZM56 7.687C56.0856 7.77713 56.1874 7.85039 56.3 7.903C56.2403 8.01135 56.2019 8.13017 56.187 8.253C56.0647 8.23033 55.9393 8.23033 55.817 8.253C55.8012 8.12887 55.7615 8.00898 55.7 7.9C55.8124 7.84829 55.9141 7.77605 56 7.687ZM7.64799 10.764L7.14799 12.309C7.08243 12.51 7.08227 12.7266 7.14753 12.9277C7.21279 13.1289 7.34012 13.3041 7.51122 13.4283C7.68232 13.5525 7.88838 13.6193 8.09982 13.6191C8.31125 13.6188 8.51717 13.5516 8.68799 13.427L9.99999 12.472L11.314 13.427C11.4848 13.5516 11.6907 13.6188 11.9022 13.6191C12.1136 13.6193 12.3197 13.5525 12.4908 13.4283C12.6619 13.3041 12.7892 13.1289 12.8544 12.9277C12.9197 12.7266 12.9195 12.51 12.854 12.309L12.354 10.764L13.668 9.809C13.839 9.68476 13.9662 9.50953 14.0314 9.30848C14.0966 9.10742 14.0964 8.89087 14.0309 8.68993C13.9654 8.48898 13.8378 8.31397 13.6666 8.19001C13.4954 8.06606 13.2894 7.99954 13.078 8H11.453L10.953 6.455C10.8872 6.25493 10.76 6.08073 10.5894 5.95723C10.4188 5.83374 10.2136 5.76725 10.003 5.76725C9.79239 5.76725 9.58717 5.83374 9.41658 5.95723C9.24599 6.08073 9.11875 6.25493 9.05299 6.455L8.54699 8H6.92199C6.7108 7.99996 6.50501 8.06678 6.33413 8.19089C6.16326 8.315 6.03606 8.49003 5.97078 8.69088C5.90549 8.89173 5.90547 9.10809 5.97072 9.30895C6.03597 9.50981 6.16313 9.68486 6.33399 9.809L7.64799 10.764ZM9.99999 9.687C10.0856 9.77713 10.1874 9.85039 10.3 9.903C10.2403 10.0114 10.2019 10.1302 10.187 10.253C10.0647 10.2303 9.93928 10.2303 9.81699 10.253C9.80122 10.1289 9.76148 10.009 9.69999 9.9C9.81237 9.84829 9.91411 9.77605 9.99999 9.687Z" fill="black"/>
<path d="M21.334 28.809L22.648 29.764L22.148 31.309C22.0824 31.51 22.0823 31.7266 22.1475 31.9277C22.2128 32.1289 22.3401 32.3041 22.5112 32.4283C22.6823 32.5525 22.8884 32.6193 23.0998 32.6191C23.3113 32.6188 23.5172 32.5516 23.688 32.427L25 31.472L26.314 32.427C26.4848 32.5516 26.6907 32.6188 26.9022 32.6191C27.1136 32.6193 27.3197 32.5525 27.4908 32.4283C27.6619 32.3041 27.7892 32.1289 27.8545 31.9277C27.9197 31.7266 27.9196 31.51 27.854 31.309L27.354 29.764L28.668 28.809C28.839 28.6848 28.9662 28.5095 29.0314 28.3085C29.0966 28.1074 29.0965 27.8909 29.0309 27.6899C28.9654 27.489 28.8379 27.314 28.6666 27.19C28.4954 27.0661 28.2894 26.9995 28.078 27H26.453L25.953 25.455C25.8872 25.2549 25.76 25.0807 25.5894 24.9572C25.4188 24.8337 25.2136 24.7673 25.003 24.7673C24.7924 24.7673 24.5872 24.8337 24.4166 24.9572C24.246 25.0807 24.1188 25.2549 24.053 25.455L23.547 27H21.922C21.7108 27 21.505 27.0668 21.3342 27.1909C21.1633 27.315 21.0361 27.49 20.9708 27.6909C20.9055 27.8917 20.9055 28.1081 20.9707 28.309C21.036 28.5098 21.1632 28.6849 21.334 28.809ZM25 28.687C25.0856 28.7771 25.1874 28.8504 25.3 28.903C25.2403 29.0114 25.2019 29.1302 25.187 29.253C25.0647 29.2303 24.9393 29.2303 24.817 29.253C24.8021 29.1302 24.7637 29.0114 24.704 28.903C24.8152 28.85 24.9156 28.7767 25 28.687ZM43.029 40.691C42.9638 40.4902 42.8366 40.3151 42.6658 40.191C42.4949 40.0669 42.2892 40 42.078 40H40.453L39.953 38.455C39.8872 38.2549 39.76 38.0807 39.5894 37.9572C39.4188 37.8337 39.2136 37.7673 39.003 37.7673C38.7924 37.7673 38.5872 37.8337 38.4166 37.9572C38.246 38.0807 38.1188 38.2549 38.053 38.455L37.547 40H35.922C35.7108 40 35.505 40.0668 35.3341 40.1909C35.1633 40.315 35.0361 40.49 34.9708 40.6909C34.9055 40.8917 34.9055 41.1081 34.9707 41.309C35.036 41.5098 35.1631 41.6849 35.334 41.809L36.648 42.764L36.148 44.309C36.0824 44.51 36.0823 44.7266 36.1475 44.9277C36.2128 45.1289 36.3401 45.3041 36.5112 45.4283C36.6823 45.5525 36.8884 45.6193 37.0998 45.6191C37.3113 45.6188 37.5172 45.5516 37.688 45.427L39 44.472L40.314 45.427C40.4848 45.5516 40.6907 45.6188 40.9022 45.6191C41.1136 45.6193 41.3197 45.5525 41.4908 45.4283C41.6619 45.3041 41.7892 45.1289 41.8545 44.9277C41.9197 44.7266 41.9196 44.51 41.854 44.309L41.354 42.764L42.668 41.809C42.8384 41.6846 42.9652 41.5094 43.03 41.3086C43.0948 41.1078 43.0945 40.8916 43.029 40.691ZM39.185 42.253C39.0627 42.2303 38.9373 42.2303 38.815 42.253C38.8001 42.1302 38.7617 42.0114 38.702 41.903C38.8146 41.8504 38.9164 41.7771 39.002 41.687C39.0876 41.7771 39.1894 41.8504 39.302 41.903C39.2409 42.0111 39.2012 42.1299 39.185 42.253ZM9.07801 56H7.45301L6.95301 54.455C6.88725 54.2549 6.76 54.0807 6.58941 53.9572C6.41883 53.8337 6.2136 53.7673 6.00301 53.7673C5.79241 53.7673 5.58718 53.8337 5.4166 53.9572C5.24601 54.0807 5.11876 54.2549 5.05301 54.455L4.54701 56H2.92201C2.71081 56 2.50503 56.0668 2.33415 56.1909C2.16327 56.315 2.03608 56.49 1.97079 56.6909C1.90551 56.8917 1.90549 57.1081 1.97074 57.309C2.03598 57.5098 2.16315 57.6849 2.33401 57.809L3.64801 58.764L3.14801 60.309C3.08244 60.51 3.08228 60.7266 3.14755 60.9277C3.21281 61.1289 3.34013 61.3041 3.51123 61.4283C3.68233 61.5525 3.8884 61.6193 4.09983 61.6191C4.31127 61.6188 4.51718 61.5516 4.68801 61.427L6.00001 60.472L7.31401 61.427C7.48483 61.5516 7.69074 61.6188 7.90218 61.6191C8.11361 61.6193 8.31968 61.5525 8.49078 61.4283C8.66188 61.3041 8.7892 61.1289 8.85447 60.9277C8.91973 60.7266 8.91957 60.51 8.85401 60.309L8.35401 58.764L9.66801 57.809C9.839 57.6848 9.96623 57.5095 10.0314 57.3085C10.0966 57.1074 10.0965 56.8909 10.0309 56.6899C9.96538 56.489 9.83785 56.314 9.66665 56.19C9.49544 56.0661 9.28937 55.9995 9.07801 56ZM6.18501 58.253C6.06271 58.2303 5.9373 58.2303 5.81501 58.253C5.79986 58.129 5.7608 58.0091 5.70001 57.9C5.81263 57.8474 5.91439 57.7741 6.00001 57.684C6.08562 57.7741 6.18738 57.8474 6.30001 57.9C6.23921 58.0091 6.20015 58.129 6.18501 58.253ZM61.029 54.691C60.9638 54.4902 60.8366 54.3151 60.6658 54.191C60.4949 54.0669 60.2892 54 60.078 54H58.453L57.953 52.455C57.8872 52.2549 57.76 52.0807 57.5894 51.9572C57.4188 51.8337 57.2136 51.7673 57.003 51.7673C56.7924 51.7673 56.5872 51.8337 56.4166 51.9572C56.246 52.0807 56.1188 52.2549 56.053 52.455L55.547 54H53.922C53.7108 54 53.505 54.0668 53.3341 54.1909C53.1633 54.315 53.0361 54.49 52.9708 54.6909C52.9055 54.8917 52.9055 55.1081 52.9707 55.309C53.036 55.5098 53.1631 55.6849 53.334 55.809L54.648 56.764L54.148 58.309C54.0824 58.51 54.0823 58.7266 54.1475 58.9277C54.2128 59.1289 54.3401 59.3041 54.5112 59.4283C54.6823 59.5525 54.8884 59.6193 55.0998 59.6191C55.3113 59.6188 55.5172 59.5516 55.688 59.427L57 58.472L58.314 59.427C58.4848 59.5516 58.6907 59.6188 58.9022 59.6191C59.1136 59.6193 59.3197 59.5525 59.4908 59.4283C59.6619 59.3041 59.7892 59.1289 59.8545 58.9277C59.9197 58.7266 59.9196 58.51 59.854 58.309L59.354 56.764L60.668 55.809C60.8384 55.6846 60.9652 55.5094 61.03 55.3086C61.0948 55.1078 61.0945 54.8916 61.029 54.691ZM57.185 56.253C57.0627 56.2303 56.9373 56.2303 56.815 56.253C56.8001 56.1302 56.7617 56.0114 56.702 55.903C56.8146 55.8504 56.9164 55.7771 57.002 55.687C57.0876 55.7771 57.1894 55.8504 57.302 55.903C57.2409 56.0111 57.2012 56.1299 57.185 56.253Z" fill="black"/>
</svg>
